<svg xmlns="http://www.w3.org/2000/svg" xmlns:xlink="http://www.w3.org/1999/xlink" viewBox="0 0 192 192"><defs><style>.a{isolation:isolate}.c{fill:#e2e2e2}.d{fill:#999}.e{fill:#959595}.f{fill:#f6f6f6}.g{fill:#ccc}.h{fill:#00bfff}.i{fill:url(#a)}</style><linearGradient id="a" x1="90" x2="154.97" y1="126" y2="190.97" gradientUnits="userSpaceOnUse"><stop offset=".32" stop-opacity=".15"/><stop offset=".62" stop-opacity=".02"/><stop offset="1" stop-opacity="0"/></linearGradient><filter id="shadow" width="200%" height="200%" x="0" y="0"><feDropShadow xmlns="http://www.w3.org/2000/svg" dx="0" dy="16" flood-color="#000" flood-opacity=".2" stdDeviation="16"/></filter></defs><title>AppLogo</title><g class="a" filter="url(#shadow)"><path d="M177.94,160H56V100H177.94a8,8,0,0,1,8,8v44A8,8,0,0,1,177.94,160Z" class="c"/><rect width="30" height="30" x="70.01" y="115" class="d"/><rect width="30" height="30" x="107.51" y="115" class="d"/><rect width="30" height="30" x="145" y="115" class="d"/><polygon points="124 32 56 100 56 160 124 92 124 32" class="e"/><path d="M124,92H16a8,8,0,0,1-8-8V40a8,8,0,0,1,8-8H124Z" class="f"/><rect width="30" height="30" x="20" y="44.53" class="g"/><rect width="58.02" height="30" x="56" y="44.53" class="h"/><polygon points="116 100 56 160 185.94 160 185.94 153.94 132 100 116 100" class="i"/></g></svg>